HIERARCHY
ROOT Hips
{
  OFFSET -32.5998 29.0326 120.673
  CHANNELS 6 Xposition Yposition Zposition Zrotation Xrotation Yrotation
  JOINT LeftUpLeg
  {
    OFFSET 8.64259 1.95398 -2.38835
    CHANNELS 3 Zrotation Xrotation Yrotation
    JOINT LeftLeg
    {
      OFFSET 43.7702 0 0
      CHANNELS 3 Zrotation Xrotation Yrotation
      JOINT LeftFoot
      {
        OFFSET 40.6238 0 0
        CHANNELS 3 Zrotation Xrotation Yrotation
        JOINT LeftToeBase
        {
          OFFSET 12.7242 0 0
          CHANNELS 3 Zrotation Xrotation Yrotation
          End Site
          {
            OFFSET 0 0 0
          }
        }
      }
    }
  }
  JOINT RightUpLeg
  {
    OFFSET -8.2249 1.95398 -2.59336
    CHANNELS 3 Zrotation Xrotation Yrotation
    JOINT RightLeg
    {
      OFFSET 43.5653 0 0
      CHANNELS 3 Zrotation Xrotation Yrotation
      JOINT RightFoot
      {
        OFFSET 40.6238 0 0
        CHANNELS 3 Zrotation Xrotation Yrotation
        JOINT RightToeBase
        {
          OFFSET 12.7242 0 0
          CHANNELS 3 Zrotation Xrotation Yrotation
          End Site
          {
            OFFSET 0 0 0
          }
        }
      }
    }
  }
  JOINT Spine
  {
    OFFSET 0.165834 0.87714 6.61349
    CHANNELS 3 Zrotation Xrotation Yrotation
    JOINT Spine1
    {
      OFFSET 7.38963 1.71661e-005 0
      CHANNELS 3 Zrotation Xrotation Yrotation
      JOINT Spine2
      {
        OFFSET 11.9445 1.14441e-005 0
        CHANNELS 3 Zrotation Xrotation Yrotation
        JOINT Spine3
        {
          OFFSET 14.7254 4.19617e-005 0
          CHANNELS 3 Zrotation Xrotation Yrotation
          JOINT Spine4
          {
            OFFSET 10.9679 0 0
            CHANNELS 3 Zrotation Xrotation Yrotation
            JOINT RightShoulder
            {
              OFFSET 2.46616 -1.6653 3.69651
              CHANNELS 3 Zrotation Xrotation Yrotation
              JOINT RightArm
              {
                OFFSET 13.0012 0 0
                CHANNELS 3 Zrotation Xrotation Yrotation
                JOINT RightForeArm
                {
                  OFFSET 28.7848 1.62311e-005 0
                  CHANNELS 3 Zrotation Xrotation Yrotation
                  JOINT RightHand
                  {
                    OFFSET 26.5688 1.62095e-005 0
                    CHANNELS 3 Zrotation Xrotation Yrotation
                    End Site
                    {
                      OFFSET 0 0 0
                    }
                  }
                }
              }
            }
            JOINT LeftShoulder
            {
              OFFSET 2.38034 -1.29275 -3.7523
              CHANNELS 3 Zrotation Xrotation Yrotation
              JOINT LeftArm
              {
                OFFSET 16.3182 6.07031e-005 0
                CHANNELS 3 Zrotation Xrotation Yrotation
                JOINT LeftForeArm
                {
                  OFFSET 27.0901 0 0
                  CHANNELS 3 Zrotation Xrotation Yrotation
                  JOINT LeftHand
                  {
                    OFFSET 24.5451 1.51738e-005 0
                    CHANNELS 3 Zrotation Xrotation Yrotation
                    End Site
                    {
                      OFFSET 0 0 0
                    }
                  }
                }
              }
            }
            JOINT Neck
            {
              OFFSET 5.0226 -0.0266342 0
              CHANNELS 3 Zrotation Xrotation Yrotation
              JOINT Head
              {
                OFFSET 6.69364 2.86102e-005 0
                CHANNELS 3 Zrotation Xrotation Yrotation
                End Site
                {
                  OFFSET 0 0 0
                }
              }
            }
          }
        }
      }
    }
  }
}
MOTION
Frames:	7
Frame Time:	0.0416667
73.1015 100.103 -42.9542 102.133 45.2213 84.3768 -174.036 -6.43927 87.4928 -21.5215 15.0423 -0.162357 80.6799 11.982 -1.55356 6.96398 -14.5701 6.95721 -179.921 15.943 94.2278 -30.0164 -11.3529 -3.02295 67.3671 -4.69839 -2.78848 20.9573 2.23469 4.14192 -0.361411 8.12072 -90.3629 10.6296 -0.886582 -0.640905 -1.04113 -0.913953 -0.601261 -23.5765 -0.653002 -0.877724 -3.56384 -0.652997 -0.87772 89.9852 -28.227 -107.486 23.7994 -9.55112 -22.3644 7.71981 18.3485 -62.5862 -8.38567 0.00472061 -5.56452 -88.6994 -44.8395 79.6236 -27.4581 6.27831 -25.1412 -23.9841 -27.7951 -58.4488 9.09184 0.522242 1.72909 -2.0793 1.45118 -10.5864 -7.00598 2.60457 4.0329 
76.449 99.5902 -46.0901 102.39 47.2912 83.8892 -173.011 -10.6514 88.7814 -19.1825 18.3748 -0.415918 82.7822 13.8356 -1.52386 9.72201 -14.7149 9.51661 179.906 16.4613 94.8797 -18.6001 -13.0758 -2.06782 66.1448 -4.14206 -2.68373 22.199 1.67299 4.26607 -0.585385 8.18629 -90.3146 10.4985 -1.31039 -0.508542 -1.17181 -1.3315 -0.450364 -23.7102 -1.09697 -0.878888 -3.69753 -1.09697 -0.878886 90.3275 -28.3832 -106.728 24.1911 -8.24609 -21.8065 7.30507 17.7184 -63.0101 -8.93813 -0.077801 -4.3978 -88.7743 -44.3601 79.4005 -27.3452 8.0699 -26.9541 -23.313 -27.0042 -59.7172 2.07829 -0.0557192 -2.9674 -1.53529 1.17637 -12.1274 -6.707 2.58323 4.13968 
80.0392 98.6543 -49.6265 102.726 47.8287 83.8349 -171.345 -15.3265 90.6761 -16.633 20.2273 -0.97543 84.9056 15.457 -1.67066 8.98455 -14.6138 8.72475 179.167 16.3026 96.4762 -9.27554 -8.78748 0.0711243 64.3813 -2.87139 -1.05747 25.2812 0.728525 3.05201 -0.650437 8.24555 -90.2959 10.3801 -1.43129 -0.462799 -1.29008 -1.45027 -0.399357 -23.8295 -1.22601 -0.871611 -3.81686 -1.22603 -0.871613 90.4349 -28.5703 -106.437 24.4632 -7.731 -21.6257 8.37372 18.0616 -63.7508 -7.85673 -0.0941222 -4.0355 -88.8008 -44.5063 79.3901 -27.4596 7.2185 -28.126 -22.5761 -26.5844 -58.5308 3.78577 0.0650188 -1.6009 -1.73947 1.08909 -13.1831 -6.06739 2.61785 4.66744 
83.9161 97.229 -53.4425 103.016 47.6576 83.914 -169.764 -19.8269 92.2906 -15.3474 19.8052 -1.34732 87.8243 16.8968 -2.89263 10.841 -14.4548 10.153 179.515 16.8285 98.408 -7.10203 -4.44436 1.29128 64.6445 -3.29872 -1.07432 27.1561 0.204099 2.032 -0.664713 8.27358 -90.3276 10.3237 -1.47411 -0.523068 -1.34652 -1.49571 -0.457683 -23.886 -1.24875 -0.941966 -3.87336 -1.24876 -0.941972 90.3471 -28.8284 -106.515 23.9134 -7.05788 -21.5127 8.29813 17.8771 -63.6836 -9.78893 -0.317339 -1.59437 -88.9431 -44.734 79.2133 -27.8024 6.8015 -28.4698 -22.2017 -26.4428 -58.1017 4.27103 0.12223 -0.69922 -1.69328 1.15122 -12.855 -6.01134 2.64499 4.71013 
87.5503 96.1814 -58.1477 102.508 49.6496 83.7576 -169.398 -23.7308 92.6482 -13.7325 23.2106 -0.947181 85.4792 17.2273 0.843537 15.2965 -12.0069 10.512 178.536 19.9501 98.4045 -15.364 -5.78246 1.76381 65.3121 -2.47107 -1.13495 24.3888 1.17112 2.84682 -0.903772 8.18873 -90.3181 10.4933 -1.94618 -0.45925 -1.17622 -1.96451 -0.373121 -23.7203 -1.71816 -1.02307 -3.70767 -1.71817 -1.02307 90.9258 -28.7786 -105.363 24.1166 -7.87972 -22.0456 8.44938 18.0574 -64.6147 -7.12315 -0.0332994 -4.98803 -88.9261 -44.4444 79.1767 -28.3861 6.91157 -28.4404 -22.1919 -26.3646 -58.1123 3.86718 0.128608 -0.350681 -0.562799 1.07664 -12.0772 -6.77944 2.57127 4.30293 
91.4161 95.948 -62.7859 102.128 51.484 83.5892 -169.702 -25.6785 92.8732 -14.9189 22.4932 0.432658 80.774 14.0178 0.255687 22.7255 -6.40623 7.91494 178.184 23.8054 98.412 -25.9033 -8.78628 1.22755 63.9012 0.152213 -2.27379 20.1312 2.58271 4.15818 -1.07319 8.08041 -90.3327 10.7098 -2.29043 -0.451432 -0.959138 -2.30808 -0.350144 -23.5073 -2.04882 -1.11919 -3.49462 -2.04884 -1.11919 90.9104 -29.0862 -105.281 24.6889 -7.32152 -21.2763 6.46272 16.7766 -64.9904 -6.01324 -0.0628502 -4.31304 -89.0873 -45.1316 79.0715 -28.0695 7.43575 -28.0901 -23.78 -27.2019 -58.7019 1.82439 0.0944948 0.725071 0.0136363 0.932616 -10.8538 -7.18935 2.33373 3.29795 
95.139 96.1296 -67.668 101.812 52.1121 83.1028 -171.272 -22.0241 91.4878 -25.5645 22.9339 1.55897 71.2059 7.45641 1.57194 36.0201 1.1974 5.02818 177.448 24.1557 97.7742 -32.7484 -9.61406 1.19073 64.2646 -0.0678254 -1.76147 15.8625 4.25291 4.5689 -1.01336 7.97422 -90.3466 10.922 -2.17786 -0.483924 -0.747218 -2.19704 -0.387565 -23.2937 -1.93171 -1.1163 -3.28104 -1.93171 -1.1163 91.408 -28.252 -104.572 26.4127 -7.29951 -19.913 4.44813 15.827 -64.6101 -4.22864 -0.0282092 -5.69255 -89.2402 -45.8629 78.9932 -27.9567 8.71691 -27.8652 -21.3484 -27.0437 -57.4438 3.43284 0.0956943 -0.72563 0.12464 0.464782 -8.97736 -7.0731 1.65138 2.3408 
